<svg xmlns="http://www.w3.org/2000/svg" width="45" height="82" viewBox="0 0 45 82">
  <g id="Group_22" data-name="Group 22" transform="translate(-18 -26)">
    <path id="ic_assignment_24px" d="M11,2H8.91A1.494,1.494,0,0,0,6.09,2H4A1,1,0,0,0,3,3v7a1,1,0,0,0,1,1h7a1,1,0,0,0,1-1V3A1,1,0,0,0,11,2ZM7.5,2a.5.5,0,1,1-.5.5A.5.5,0,0,1,7.5,2Zm1,7H5V8H8.5ZM10,7H5V6h5Zm0-2H5V4h5Z" transform="translate(51 25)"/>
    <path id="ic_fingerprint_24px" d="M9.663,3.112a.209.209,0,0,1-.1-.027,5.268,5.268,0,0,0-5.013,0,.226.226,0,1,1-.216-.4,5.726,5.726,0,0,1,5.436,0,.228.228,0,0,1-.1.428ZM3.223,5.474a.234.234,0,0,1-.131-.04.224.224,0,0,1-.054-.315A4.653,4.653,0,0,1,4.726,3.647a5.194,5.194,0,0,1,4.64,0,4.67,4.67,0,0,1,1.688,1.462.226.226,0,0,1-.369.261A4.225,4.225,0,0,0,9.159,4.043a4.742,4.742,0,0,0-4.23,0A4.269,4.269,0,0,0,3.4,5.38a.2.2,0,0,1-.176.094Zm2.813,5.432a.211.211,0,0,1-.157-.068,4.549,4.549,0,0,1-.9-1.188A4,4,0,0,1,4.5,7.7,2.492,2.492,0,0,1,7.048,5.272,2.492,2.492,0,0,1,9.6,7.7a.225.225,0,1,1-.45,0,2.041,2.041,0,0,0-2.1-1.975A2.041,2.041,0,0,0,4.951,7.7,3.525,3.525,0,0,0,5.37,9.43,4.259,4.259,0,0,0,6.2,10.519a.231.231,0,0,1,0,.32A.247.247,0,0,1,6.036,10.906Zm3.227-.833a2.423,2.423,0,0,1-1.4-.4A2.4,2.4,0,0,1,6.8,7.7a.225.225,0,1,1,.45,0,1.935,1.935,0,0,0,.873,1.6,1.973,1.973,0,0,0,1.143.319,2.974,2.974,0,0,0,.468-.045.226.226,0,0,1,.076.446A3.073,3.073,0,0,1,9.262,10.073Zm-.9.927a.263.263,0,0,1-.058-.009,3.511,3.511,0,0,1-1.674-.945A3.283,3.283,0,0,1,5.649,7.7a1.387,1.387,0,0,1,2.772,0,.938.938,0,0,0,1.872,0A3.174,3.174,0,0,0,7.03,4.623,3.285,3.285,0,0,0,4.056,6.437,2.9,2.9,0,0,0,3.79,7.7a4.472,4.472,0,0,0,.3,1.625.22.22,0,0,1-.13.288.223.223,0,0,1-.288-.131A5.013,5.013,0,0,1,3.345,7.7a3.381,3.381,0,0,1,.306-1.458,3.735,3.735,0,0,1,3.38-2.07,3.625,3.625,0,0,1,3.713,3.523,1.388,1.388,0,0,1-2.772,0,.938.938,0,0,0-1.872,0,2.834,2.834,0,0,0,.841,2.03,3.06,3.06,0,0,0,1.471.833.223.223,0,0,1,.158.274A.22.22,0,0,1,8.358,11Z" transform="translate(15.003 61)"/>
    <path id="ic_important_devices_24px" d="M8.625,5.379l-1.875,0a.376.376,0,0,0-.375.375V9.125A.376.376,0,0,0,6.75,9.5H8.625A.376.376,0,0,0,9,9.125V5.75A.373.373,0,0,0,8.625,5.379Zm0,3.371H6.75V6.125H8.625ZM7.5,2H.75A.747.747,0,0,0,0,2.75v4.5A.75.75,0,0,0,.75,8H3.375v.75h-.75V9.5h3V8.75h-.75V8h.75V7.25H.75V2.75H7.5V4.625h.75V2.75A.75.75,0,0,0,7.5,2ZM4.489,4.625,4.125,3.5,3.761,4.625H2.625l.926.66L3.2,6.376,4.125,5.7l.926.675L4.7,5.285l.926-.66Z" transform="translate(36 62)"/>
    <path id="ic_gif_24px" d="M9.179,9h.964v3.857H9.179ZM7.571,9H5.643A.644.644,0,0,0,5,9.643v2.571a.644.644,0,0,0,.643.643H7.571a.644.644,0,0,0,.643-.643V10.929H7.25v.964H5.964V9.964h2.25V9.643A.644.644,0,0,0,7.571,9ZM14,9.964V9H11.107v3.857h.964V11.571h1.286v-.964H12.071V9.964Z" transform="translate(49 56.571)"/>
    <path id="ic_person_24px" d="M8.5,8.5A2.25,2.25,0,1,0,6.25,6.25,2.249,2.249,0,0,0,8.5,8.5Zm0,1.125c-1.5,0-4.5.754-4.5,2.25V13h9V11.875C13,10.379,10,9.625,8.5,9.625Z" transform="translate(14 23)"/>
    <path id="ic_expand_more_24px" d="M13.943,8.59,10.5,12.025,7.058,8.59,6,9.648l4.5,4.5,4.5-4.5Z" transform="translate(30 20.131)"/>
    <path id="ic_clear_24px" d="M14,5.906,13.094,5,9.5,8.594,5.906,5,5,5.906,8.594,9.5,5,13.094,5.906,14,9.5,10.406,13.094,14,14,13.094,10.406,9.5Z" transform="translate(13 40)"/>
    <path id="ic_thumb_up_24px" d="M1,9.182H2.636V4.273H1Zm9-4.5a.821.821,0,0,0-.818-.818H6.6l.389-1.87L7,1.863a.616.616,0,0,0-.18-.434L6.388,1,3.7,3.7a.8.8,0,0,0-.241.577V8.364a.821.821,0,0,0,.818.818H7.955a.813.813,0,0,0,.753-.5L9.943,5.8A.808.808,0,0,0,10,5.5V4.719l0,0Z" transform="translate(17 80)"/>
    <path id="ic_info_24px" d="M6.5,2a4.5,4.5,0,0,0,0,9,4.592,4.592,0,0,0,2.421-.707A4.442,4.442,0,0,0,11,6.5,4.5,4.5,0,0,0,6.5,2Zm.45,6.75h-.9V6.05h.9Zm0-3.6h-.9v-.9h.9Z" transform="translate(34 80)"/>
    <path id="ic_warning_24px" d="M1,10.55h9L5.5,2ZM5.909,9.2H5.091V8.3h.818Zm0-1.8H5.091V5.6h.818Z" transform="translate(53 79.45)"/>
    <path id="ic_search_24px" d="M9.432,8.66H9.026l-.144-.139a3.35,3.35,0,1,0-.36.36l.139.144v.407L11.233,12,12,11.233Zm-3.087,0A2.316,2.316,0,1,1,8.66,6.345,2.313,2.313,0,0,1,6.345,8.66Z" transform="translate(15 96)"/>
    <path id="ic_remove_circle_outline_24px" d="M4.25,6.05v.9h4.5v-.9ZM6.5,2A4.5,4.5,0,1,0,11,6.5,4.5,4.5,0,0,0,6.5,2Zm0,8.1a3.6,3.6,0,1,1,3.6-3.6A3.6,3.6,0,0,1,6.5,10.1Z" transform="translate(34 43)"/>
    <path id="ic_add_circle_outline_24px" d="M6.95,4.25h-.9v1.8H4.25v.9h1.8v1.8h.9V6.95h1.8v-.9H6.95ZM6.5,2A4.5,4.5,0,1,0,11,6.5,4.5,4.5,0,0,0,6.5,2Zm0,8.1a3.6,3.6,0,1,1,3.6-3.6A3.6,3.6,0,0,1,6.5,10.1Z" transform="translate(52 43)"/>
    <path id="ic_highlight_off_24px" d="M7.665,4.7,6.5,5.865,5.335,4.7,4.7,5.335,5.865,6.5,4.7,7.665l.635.634L6.5,7.134,7.665,8.3,8.3,7.665,7.134,6.5,8.3,5.335ZM6.5,2A4.5,4.5,0,1,0,11,6.5,4.5,4.5,0,0,0,6.5,2Zm0,8.1a3.6,3.6,0,1,1,3.6-3.6A3.6,3.6,0,0,1,6.5,10.1Z" transform="translate(34 97)"/>
  </g>
</svg>
