<svg xmlns="http://www.w3.org/2000/svg" width="100" height="180" viewBox="0 0 100 180">
  <g id="Group_17" data-name="Group 17" transform="translate(-120 -460)">
    <path id="ic_assignment_24px" d="M20.778,3.222H16.133a3.32,3.32,0,0,0-6.267,0H5.222A2.229,2.229,0,0,0,3,5.444V21a2.229,2.229,0,0,0,2.222,2.222H20.778A2.229,2.229,0,0,0,23,21V5.444A2.229,2.229,0,0,0,20.778,3.222ZM13,3.222a1.111,1.111,0,1,1-1.111,1.111A1.114,1.114,0,0,1,13,3.222Zm2.222,15.556H7.444V16.556h7.778Zm3.333-4.444H7.444V12.111H18.556Zm0-4.444H7.444V7.667H18.556Z" transform="translate(197 459)"/>
    <path id="ic_fingerprint_24px" d="M17.81,4.47a.465.465,0,0,1-.23-.06A11.442,11.442,0,0,0,12.01,3,11.441,11.441,0,0,0,6.44,4.41a.5.5,0,1,1-.48-.88,12.724,12.724,0,0,1,12.08-.01.506.506,0,0,1-.23.95ZM3.5,9.72a.521.521,0,0,1-.29-.09.5.5,0,0,1-.12-.7A10.339,10.339,0,0,1,6.84,5.66a11.543,11.543,0,0,1,10.31-.01A10.378,10.378,0,0,1,20.9,8.9a.5.5,0,0,1-.82.58,9.388,9.388,0,0,0-3.39-2.94,10.537,10.537,0,0,0-9.4.01,9.487,9.487,0,0,0-3.4,2.96.436.436,0,0,1-.39.21ZM9.75,21.79a.469.469,0,0,1-.35-.15A10.109,10.109,0,0,1,7.39,19a8.877,8.877,0,0,1-1.05-4.34A5.538,5.538,0,0,1,12,9.27a5.538,5.538,0,0,1,5.66,5.39.5.5,0,1,1-1,0A4.536,4.536,0,0,0,12,10.27a4.536,4.536,0,0,0-4.66,4.39,7.834,7.834,0,0,0,.93,3.85,9.465,9.465,0,0,0,1.85,2.42.513.513,0,0,1,0,.71A.548.548,0,0,1,9.75,21.79Zm7.17-1.85a5.385,5.385,0,0,1-3.1-.89,5.324,5.324,0,0,1-2.38-4.39.5.5,0,0,1,1,0,4.3,4.3,0,0,0,1.94,3.56,4.385,4.385,0,0,0,2.54.71,6.609,6.609,0,0,0,1.04-.1.5.5,0,0,1,.17.99A6.829,6.829,0,0,1,16.92,19.94ZM14.91,22a.585.585,0,0,1-.13-.02,7.8,7.8,0,0,1-3.72-2.1,7.3,7.3,0,0,1-2.17-5.22,3.016,3.016,0,0,1,3.08-2.94,3.016,3.016,0,0,1,3.08,2.94,2.085,2.085,0,0,0,4.16,0,7.053,7.053,0,0,0-7.25-6.83,7.3,7.3,0,0,0-6.61,4.03,6.433,6.433,0,0,0-.59,2.8,9.937,9.937,0,0,0,.67,3.61.488.488,0,0,1-.29.64.5.5,0,0,1-.64-.29,11.141,11.141,0,0,1-.73-3.96,7.513,7.513,0,0,1,.68-3.24,8.3,8.3,0,0,1,7.51-4.6,8.055,8.055,0,0,1,8.25,7.83,3.083,3.083,0,0,1-6.16,0,2.014,2.014,0,0,0-2.08-1.94,2.014,2.014,0,0,0-2.08,1.94,6.3,6.3,0,0,0,1.87,4.51,6.8,6.8,0,0,0,3.27,1.85.5.5,0,0,1,.35.61A.488.488,0,0,1,14.91,22Z" transform="translate(117.003 538)"/>
    <path id="ic_important_devices_24px" d="M19.167,9.508,15,9.5a.836.836,0,0,0-.833.833v7.5a.836.836,0,0,0,.833.833h4.167A.836.836,0,0,0,20,17.833v-7.5A.829.829,0,0,0,19.167,9.508Zm0,7.492H15V11.167h4.167Zm-2.5-15h-15A1.661,1.661,0,0,0,0,3.667v10a1.666,1.666,0,0,0,1.667,1.667H7.5V17H5.833v1.667H12.5V17H10.833V15.333H12.5V13.667H1.667v-10h15V7.833h1.667V3.667A1.666,1.666,0,0,0,16.667,2ZM9.975,7.833l-.808-2.5-.808,2.5H5.833L7.892,9.3l-.783,2.425,2.058-1.5,2.058,1.5L10.442,9.3,12.5,7.833Z" transform="translate(160 538)"/>
    <path id="ic_gif_24px" d="M14.286,9h2.143v8.571H14.286ZM10.714,9H6.429A1.432,1.432,0,0,0,5,10.429v5.714a1.432,1.432,0,0,0,1.429,1.429h4.286a1.432,1.432,0,0,0,1.429-1.429V13.286H10v2.143H7.143V11.143h5v-.714A1.432,1.432,0,0,0,10.714,9ZM25,11.143V9H18.571v8.571h2.143V14.714h2.857V12.571H20.714V11.143Z" transform="translate(195 537)"/>
    <path id="ic_person_24px" d="M14,14A5,5,0,1,0,9,9,5,5,0,0,0,14,14Zm0,2.5c-3.337,0-10,1.675-10,5V24H24V21.5C24,18.175,17.337,16.5,14,16.5Z" transform="translate(116 456)"/>
    <path id="ic_expand_more_24px" d="M23.65,8.59,16,16.223,8.35,8.59,6,10.94l10,10,10-10Z" transform="translate(154 455.235)"/>
    <path id="ic_clear_24px" d="M25,7.014,22.986,5,15,12.986,7.014,5,5,7.014,12.986,15,5,22.986,7.014,25,15,17.014,22.986,25,25,22.986,17.014,15Z" transform="translate(115 495)"/>
    <path id="ic_thumb_up_24px" d="M1,19.182H4.636V8.273H1Zm20-10a1.824,1.824,0,0,0-1.818-1.818H13.445l.864-4.155.027-.291a1.368,1.368,0,0,0-.4-.964L12.973,1,6.991,6.991a1.778,1.778,0,0,0-.536,1.282v9.091a1.824,1.824,0,0,0,1.818,1.818h8.182a1.806,1.806,0,0,0,1.673-1.109l2.745-6.409A1.8,1.8,0,0,0,21,11V9.264l-.009-.009Z" transform="translate(119 579)"/>
    <path id="ic_info_24px" d="M12,2a10,10,0,0,0,0,20,10.2,10.2,0,0,0,5.379-1.57A9.87,9.87,0,0,0,22,12,10,10,0,0,0,12,2Zm1,15H11V11h2Zm0-8H11V7h2Z" transform="translate(158 578)"/>
    <path id="ic_warning_24px" d="M1,21H21L11,2Zm10.909-3H10.091V16h1.818Zm0-4H10.091V10h1.818Z" transform="translate(199 578)"/>
    <path id="ic_search_24px" d="M17.294,15.579h-.9l-.32-.309a7.444,7.444,0,1,0-.8.8l.309.32v.9L21.3,23,23,21.3Zm-6.861,0a5.146,5.146,0,1,1,5.146-5.146A5.139,5.139,0,0,1,10.433,15.579Z" transform="translate(117 617)"/>
    <path id="ic_remove_circle_outline_24px" d="M7,11v2H17V11Zm5-9A10,10,0,1,0,22,12,10,10,0,0,0,12,2Zm0,18a8,8,0,1,1,8-8A8.011,8.011,0,0,1,12,20Z" transform="translate(158 498)"/>
    <path id="ic_add_circle_outline_24px" d="M13,7H11v4H7v2h4v4h2V13h4V11H13ZM12,2A10,10,0,1,0,22,12,10,10,0,0,0,12,2Zm0,18a8,8,0,1,1,8-8A8.011,8.011,0,0,1,12,20Z" transform="translate(198 498)"/>
    <path id="ic_highlight_off_24px" d="M14.59,8,12,10.59,9.41,8,8,9.41,10.59,12,8,14.59,9.41,16,12,13.41,14.59,16,16,14.59,13.41,12,16,9.41ZM12,2A10,10,0,1,0,22,12,9.991,9.991,0,0,0,12,2Zm0,18a8,8,0,1,1,8-8A8.011,8.011,0,0,1,12,20Z" transform="translate(158 618)"/>
  </g>
</svg>
