<svg xmlns="http://www.w3.org/2000/svg" width="80" height="145" viewBox="0 0 80 145">
  <g id="Group_21" data-name="Group 21" transform="translate(-80 -207)">
    <path id="ic_assignment_24px" d="M17.222,2.778H13.507a2.656,2.656,0,0,0-5.013,0H4.778A1.783,1.783,0,0,0,3,4.556V17a1.783,1.783,0,0,0,1.778,1.778H17.222A1.783,1.783,0,0,0,19,17V4.556A1.783,1.783,0,0,0,17.222,2.778ZM11,2.778a.889.889,0,1,1-.889.889A.892.892,0,0,1,11,2.778Zm1.778,12.444H6.556V13.444h6.222Zm2.667-3.556H6.556V9.889h8.889Zm0-3.556H6.556V6.333h8.889Z" transform="translate(141 206)"/>
    <path id="ic_fingerprint_24px" d="M16.167,4.2a.413.413,0,0,1-.2-.053A10.173,10.173,0,0,0,11.01,2.889,10.171,10.171,0,0,0,6.058,4.143a.446.446,0,1,1-.427-.782,11.312,11.312,0,0,1,10.74-.009.45.45,0,0,1-.2.845ZM3.444,8.864a.463.463,0,0,1-.258-.08.443.443,0,0,1-.107-.622A9.192,9.192,0,0,1,6.414,5.254a10.263,10.263,0,0,1,9.166-.009,9.227,9.227,0,0,1,3.334,2.889.446.446,0,0,1-.729.516,8.346,8.346,0,0,0-3.014-2.614,9.368,9.368,0,0,0-8.357.009A8.434,8.434,0,0,0,3.791,8.677a.388.388,0,0,1-.347.187ZM9,19.595a.417.417,0,0,1-.311-.133A8.988,8.988,0,0,1,6.9,17.114a7.892,7.892,0,0,1-.934-3.859A4.924,4.924,0,0,1,11,8.464a4.924,4.924,0,0,1,5.032,4.792.445.445,0,1,1-.889,0A4.033,4.033,0,0,0,11,9.353a4.033,4.033,0,0,0-4.143,3.9,6.965,6.965,0,0,0,.827,3.423A8.415,8.415,0,0,0,9.33,18.83a.456.456,0,0,1,0,.631A.488.488,0,0,1,9,19.595Zm6.375-1.645a4.788,4.788,0,0,1-2.756-.791,4.734,4.734,0,0,1-2.116-3.9.445.445,0,0,1,.889,0,3.824,3.824,0,0,0,1.725,3.165,3.9,3.9,0,0,0,2.258.631,5.875,5.875,0,0,0,.925-.089.447.447,0,0,1,.151.88A6.072,6.072,0,0,1,15.376,17.95Zm-1.787,1.831a.52.52,0,0,1-.116-.018A6.937,6.937,0,0,1,10.166,17.9a6.487,6.487,0,0,1-1.929-4.641,2.681,2.681,0,0,1,2.738-2.614,2.681,2.681,0,0,1,2.738,2.614,1.854,1.854,0,0,0,3.7,0,6.271,6.271,0,0,0-6.446-6.072,6.491,6.491,0,0,0-5.877,3.583,5.719,5.719,0,0,0-.525,2.489,8.835,8.835,0,0,0,.6,3.21.434.434,0,0,1-.258.569.441.441,0,0,1-.569-.258,9.9,9.9,0,0,1-.649-3.521,6.679,6.679,0,0,1,.6-2.881,7.378,7.378,0,0,1,6.677-4.09A7.162,7.162,0,0,1,18.3,13.247a2.741,2.741,0,0,1-5.477,0,1.79,1.79,0,0,0-1.849-1.725,1.79,1.79,0,0,0-1.849,1.725,5.6,5.6,0,0,0,1.663,4.01A6.046,6.046,0,0,0,13.7,18.9a.441.441,0,0,1,.311.542A.434.434,0,0,1,13.588,19.781Z" transform="translate(77.003 270)"/>
    <path id="ic_important_devices_24px" d="M15.333,8.007,12,8a.669.669,0,0,0-.667.667v6a.669.669,0,0,0,.667.667h3.333A.669.669,0,0,0,16,14.667v-6A.663.663,0,0,0,15.333,8.007Zm0,5.993H12V9.333h3.333Zm-2-12h-12A1.329,1.329,0,0,0,0,3.333v8a1.333,1.333,0,0,0,1.333,1.333H6V14H4.667v1.333H10V14H8.667V12.667H10V11.333H1.333v-8h12V6.667h1.333V3.333A1.333,1.333,0,0,0,13.333,2ZM7.98,6.667l-.647-2-.647,2H4.667L6.313,7.84,5.687,9.78l1.647-1.2L8.98,9.78,8.353,7.84,10,6.667Z" transform="translate(112 271.667)"/>
    <path id="ic_gif_24px" d="M12.429,9h1.714v6.857H12.429ZM9.571,9H6.143A1.145,1.145,0,0,0,5,10.143v4.571a1.145,1.145,0,0,0,1.143,1.143H9.571a1.145,1.145,0,0,0,1.143-1.143V12.429H9v1.714H6.714V10.714h4v-.571A1.145,1.145,0,0,0,9.571,9ZM21,10.714V9H15.857v6.857h1.714V13.571h2.286V11.857H17.571V10.714Z" transform="translate(139 268.462)"/>
    <path id="ic_person_24px" d="M12,12A4,4,0,1,0,8,8,4,4,0,0,0,12,12Zm0,2c-2.67,0-8,1.34-8,4v2H20V18C20,15.34,14.67,14,12,14Z" transform="translate(76 204)"/>
    <path id="ic_expand_more_24px" d="M20.12,8.59,14,14.7,7.88,8.59,6,10.47l8,8,8-8Z" transform="translate(106 202.863)"/>
    <path id="ic_clear_24px" d="M21,6.611,19.389,5,13,11.389,6.611,5,5,6.611,11.389,13,5,19.389,6.611,21,13,14.611,19.389,21,21,19.389,14.611,13Z" transform="translate(75 235)"/>
    <path id="ic_thumb_up_24px" d="M1,15.545H3.909V6.818H1Zm16-8a1.459,1.459,0,0,0-1.455-1.455H10.956l.691-3.324.022-.233a1.1,1.1,0,0,0-.32-.771L10.578,1,5.793,5.793a1.422,1.422,0,0,0-.429,1.025v7.273a1.459,1.459,0,0,0,1.455,1.455h6.545a1.445,1.445,0,0,0,1.338-.887l2.2-5.127A1.437,1.437,0,0,0,17,9V7.611L16.993,7.6Z" transform="translate(79 303)"/>
    <path id="ic_info_24px" d="M10,2a8,8,0,1,0,0,16,8.163,8.163,0,0,0,4.3-1.256A7.9,7.9,0,0,0,18,10,8,8,0,0,0,10,2Zm.8,12H9.2V9.2h1.6Zm0-6.4H9.2V6h1.6Z" transform="translate(110 302)"/>
    <path id="ic_warning_24px" d="M1,17.2H17L9,2Zm8.727-2.4H8.273V13.2H9.727Zm0-3.2H8.273V8.4H9.727Z" transform="translate(143 302.8)"/>
    <path id="ic_search_24px" d="M14.435,13.063h-.723l-.256-.247a5.955,5.955,0,1,0-.64.64l.247.256v.723L17.637,19,19,17.637Zm-5.489,0a4.117,4.117,0,1,1,4.117-4.117A4.111,4.111,0,0,1,8.946,13.063Z" transform="translate(77 333)"/>
    <path id="ic_remove_circle_outline_24px" d="M6,9.2v1.6h8V9.2ZM10,2a8,8,0,1,0,8,8A8,8,0,0,0,10,2Zm0,14.4A6.4,6.4,0,1,1,16.4,10,6.408,6.408,0,0,1,10,16.4Z" transform="translate(110 238)"/>
    <path id="ic_add_circle_outline_24px" d="M10.8,6H9.2V9.2H6v1.6H9.2V14h1.6V10.8H14V9.2H10.8ZM10,2a8,8,0,1,0,8,8A8,8,0,0,0,10,2Zm0,14.4A6.4,6.4,0,1,1,16.4,10,6.408,6.408,0,0,1,10,16.4Z" transform="translate(142 238)"/>
    <path id="ic_highlight_off_24px" d="M12.072,6.8,10,8.872,7.928,6.8,6.8,7.928,8.872,10,6.8,12.072,7.928,13.2,10,11.128,12.072,13.2,13.2,12.072,11.128,10,13.2,7.928ZM10,2a8,8,0,1,0,8,8A7.993,7.993,0,0,0,10,2Zm0,14.4A6.4,6.4,0,1,1,16.4,10,6.408,6.408,0,0,1,10,16.4Z" transform="translate(110 334)"/>
    <circle id="Ellipse_1" data-name="Ellipse 1" cx="8" cy="8" r="8" transform="translate(144 336)" fill="#004eff"/>
  </g>
</svg>
