<svg xmlns="http://www.w3.org/2000/svg" width="60" height="109" viewBox="0 0 60 109">
  <g id="Group_20" data-name="Group 20" transform="translate(-12 -23)">
    <path id="ic_assignment_24px" d="M13.667,2.333H10.88a1.992,1.992,0,0,0-3.76,0H4.333A1.337,1.337,0,0,0,3,3.667V13a1.337,1.337,0,0,0,1.333,1.333h9.333A1.337,1.337,0,0,0,15,13V3.667A1.337,1.337,0,0,0,13.667,2.333ZM9,2.333A.667.667,0,1,1,8.333,3,.669.669,0,0,1,9,2.333Zm1.333,9.333H5.667V10.333h4.667Zm2-2.667H5.667V7.667h6.667Zm0-2.667H5.667V5h6.667Z" transform="translate(57 22)"/>
    <path id="ic_fingerprint_24px" d="M12.874,3.647a.31.31,0,0,1-.153-.04,7.806,7.806,0,0,0-7.428,0,.334.334,0,1,1-.32-.587,8.484,8.484,0,0,1,8.055-.007.337.337,0,0,1-.153.633Zm-9.542,3.5a.347.347,0,0,1-.193-.06.332.332,0,0,1-.08-.467,6.894,6.894,0,0,1,2.5-2.18,7.7,7.7,0,0,1,6.875-.007,6.92,6.92,0,0,1,2.5,2.167.335.335,0,0,1-.547.387,6.26,6.26,0,0,0-2.26-1.96,7.026,7.026,0,0,0-6.268.007A6.326,6.326,0,0,0,3.592,7.008a.291.291,0,0,1-.26.14ZM7.5,15.2a.313.313,0,0,1-.233-.1,6.741,6.741,0,0,1-1.34-1.76,5.919,5.919,0,0,1-.7-2.894A3.693,3.693,0,0,1,9,6.848a3.693,3.693,0,0,1,3.774,3.594.333.333,0,1,1-.667,0A3.025,3.025,0,0,0,9,7.514a3.025,3.025,0,0,0-3.107,2.927,5.224,5.224,0,0,0,.62,2.567,6.312,6.312,0,0,0,1.234,1.614.342.342,0,0,1,0,.473A.366.366,0,0,1,7.5,15.2Zm4.781-1.234a3.591,3.591,0,0,1-2.067-.593,3.55,3.55,0,0,1-1.587-2.927.333.333,0,0,1,.667,0,2.868,2.868,0,0,0,1.294,2.374,2.924,2.924,0,0,0,1.694.473,4.407,4.407,0,0,0,.693-.067.335.335,0,0,1,.113.66A4.554,4.554,0,0,1,12.281,13.962Zm-1.34,1.374a.39.39,0,0,1-.087-.013,5.2,5.2,0,0,1-2.481-1.4,4.865,4.865,0,0,1-1.447-3.481,2.056,2.056,0,0,1,4.108,0,1.39,1.39,0,0,0,2.774,0A4.7,4.7,0,0,0,8.974,5.887,4.868,4.868,0,0,0,4.566,8.575a4.29,4.29,0,0,0-.393,1.867,6.626,6.626,0,0,0,.447,2.407.325.325,0,0,1-.193.427A.331.331,0,0,1,4,13.082a7.429,7.429,0,0,1-.487-2.641,5.01,5.01,0,0,1,.453-2.16A5.534,5.534,0,0,1,8.974,5.214a5.371,5.371,0,0,1,5.5,5.221,2.056,2.056,0,0,1-4.108,0A1.343,1.343,0,0,0,8.98,9.141a1.343,1.343,0,0,0-1.387,1.294A4.2,4.2,0,0,0,8.84,13.442a4.534,4.534,0,0,0,2.18,1.234.331.331,0,0,1,.233.407A.325.325,0,0,1,10.941,15.336Z" transform="translate(9.003 70)"/>
    <path id="ic_important_devices_24px" d="M11.5,6.5,9,6.5a.5.5,0,0,0-.5.5v4.5A.5.5,0,0,0,9,12h2.5a.5.5,0,0,0,.5-.5V7A.5.5,0,0,0,11.5,6.5Zm0,4.5H9V7.5h2.5ZM10,2H1A1,1,0,0,0,0,3V9a1,1,0,0,0,1,1H4.5v1h-1v1h4V11h-1V10h1V9H1V3h9V5.5h1V3A1,1,0,0,0,10,2ZM5.985,5.5,5.5,4,5.015,5.5H3.5l1.235.88-.47,1.455,1.235-.9,1.235.9L6.265,6.38,7.5,5.5Z" transform="translate(36 72)"/>
    <path id="ic_gif_24px" d="M10.571,9h1.286v5.143H10.571ZM8.429,9H5.857A.859.859,0,0,0,5,9.857v3.429a.859.859,0,0,0,.857.857H8.429a.859.859,0,0,0,.857-.857V11.571H8v1.286H6.286V10.286h3V9.857A.859.859,0,0,0,8.429,9ZM17,10.286V9H13.143v5.143h1.286V12.429h1.714V11.143H14.429v-.857Z" transform="translate(55 67.097)"/>
    <path id="ic_person_24px" d="M10,10A3,3,0,1,0,7,7,3,3,0,0,0,10,10Zm0,1.5c-2,0-6,1.005-6,3V16H16V14.5C16,12.505,12,11.5,10,11.5Z" transform="translate(8 20)"/>
    <path id="ic_expand_more_24px" d="M16.59,8.59,12,13.17,7.41,8.59,6,10l6,6,6-6Z" transform="translate(30 18.41)"/>
    <path id="ic_clear_24px" d="M17,6.209,15.791,5,11,9.791,6.209,5,5,6.209,9.791,11,5,15.791,6.209,17,11,12.209,15.791,17,17,15.791,12.209,11Z" transform="translate(7 43)"/>
    <path id="ic_thumb_up_24px" d="M1,11.909H3.182V5.364H1Zm12-6a1.094,1.094,0,0,0-1.091-1.091H8.467l.518-2.493L9,2.151a.821.821,0,0,0-.24-.578L8.184,1,4.595,4.595a1.067,1.067,0,0,0-.322.769v5.455a1.094,1.094,0,0,0,1.091,1.091h4.909a1.084,1.084,0,0,0,1-.665L12.924,7.4A1.078,1.078,0,0,0,13,7V5.958l-.005-.005Z" transform="translate(11 95)"/>
    <path id="ic_info_24px" d="M8,2A6,6,0,0,0,8,14a6.123,6.123,0,0,0,3.228-.942A5.922,5.922,0,0,0,14,8,6,6,0,0,0,8,2Zm.6,9H7.4V7.4H8.6Zm0-4.8H7.4V5H8.6Z" transform="translate(34 94)"/>
    <path id="ic_warning_24px" d="M1,13.4H13L7,2Zm6.545-1.8H6.455V10.4H7.545Zm0-2.4H6.455V6.8H7.545Z" transform="translate(59 94)"/>
    <path id="ic_search_24px" d="M11.576,10.547h-.542l-.192-.185a4.466,4.466,0,1,0-.48.48l.185.192v.542L13.978,15,15,13.978Zm-4.117,0A3.087,3.087,0,1,1,10.547,7.46,3.083,3.083,0,0,1,7.46,10.547Z" transform="translate(9 117)"/>
    <path id="ic_remove_circle_outline_24px" d="M5,7.4V8.6h6V7.4ZM8,2a6,6,0,1,0,6,6A6,6,0,0,0,8,2ZM8,12.8A4.8,4.8,0,1,1,12.8,8,4.806,4.806,0,0,1,8,12.8Z" transform="translate(34 46)"/>
    <path id="ic_add_circle_outline_24px" d="M8.6,5H7.4V7.4H5V8.6H7.4V11H8.6V8.6H11V7.4H8.6ZM8,2a6,6,0,1,0,6,6A6,6,0,0,0,8,2ZM8,12.8A4.8,4.8,0,1,1,12.8,8,4.806,4.806,0,0,1,8,12.8Z" transform="translate(58 46)"/>
    <path id="ic_highlight_off_24px" d="M9.554,5.6,8,7.154,6.446,5.6,5.6,6.446,7.154,8,5.6,9.554l.846.846L8,8.846,9.554,10.4l.846-.846L8.846,8,10.4,6.446ZM8,2a6,6,0,1,0,6,6A5.995,5.995,0,0,0,8,2ZM8,12.8A4.8,4.8,0,1,1,12.8,8,4.806,4.806,0,0,1,8,12.8Z" transform="translate(34 118)"/>
  </g>
</svg>
